<?xml version="1.0" encoding="UTF-8" standalone="no"?>
<!-- Created with Inkscape (http://www.inkscape.org/) -->

<svg
   width="128"
   height="64"
   viewBox="0 0 33.866666 16.933333"
   version="1.1"
   id="svg5"
   inkscape:export-filename="C:\Users\khowl\Downloads\boot512.png"
   inkscape:export-xdpi="96"
   inkscape:export-ydpi="96"
   inkscape:version="1.1.2 (b8e25be833, 2022-02-05)"
   sodipodi:docname="boot512.svg"
   xmlns:inkscape="http://www.inkscape.org/namespaces/inkscape"
   xmlns:sodipodi="http://sodipodi.sourceforge.net/DTD/sodipodi-0.dtd"
   xmlns="http://www.w3.org/2000/svg"
   xmlns:svg="http://www.w3.org/2000/svg">
  <sodipodi:namedview
     id="namedview7"
     pagecolor="#ffffff"
     bordercolor="#666666"
     borderopacity="1.0"
     inkscape:pageshadow="2"
     inkscape:pageopacity="0.0"
     inkscape:pagecheckerboard="0"
     inkscape:document-units="mm"
     showgrid="false"
     units="px"
     inkscape:zoom="1.4142136"
     inkscape:cx="126.21856"
     inkscape:cy="170.05918"
     inkscape:window-width="1920"
     inkscape:window-height="1001"
     inkscape:window-x="-9"
     inkscape:window-y="-9"
     inkscape:window-maximized="1"
     inkscape:current-layer="layer1"
     fit-margin-top="0"
     fit-margin-left="0"
     fit-margin-right="0"
     fit-margin-bottom="0" />
  <defs
     id="defs2" />
  <g
     inkscape:label="Layer 1"
     inkscape:groupmode="layer"
     id="layer1"
     transform="translate(-1.5460764,-2.7735385)">
    <text
       xml:space="preserve"
       style="font-style:normal;font-variant:normal;font-weight:normal;font-stretch:normal;font-size:34.1299px;line-height:1.25;font-family:'Grand National';-inkscape-font-specification:'Grand National, Normal';font-variant-ligatures:normal;font-variant-caps:normal;font-variant-numeric:normal;font-variant-east-asian:normal;letter-spacing:0px;word-spacing:0px;writing-mode:lr-tb;stroke-width:1.12877"
       x="-40.306164"
       y="5.6780624"
       id="text5336"><tspan
         sodipodi:role="line"
         id="tspan5334"
         style="font-style:normal;font-variant:normal;font-weight:normal;font-stretch:normal;font-size:34.1299px;font-family:'Grand National';-inkscape-font-specification:'Grand National, Normal';font-variant-ligatures:normal;font-variant-caps:normal;font-variant-numeric:normal;font-variant-east-asian:normal;stroke-width:1.12877"
         x="-40.306164"
         y="5.6780624">XYUV</tspan></text>
    <text
       xml:space="preserve"
       style="font-size:36px;line-height:1.25;font-family:USN_Stencil;-inkscape-font-specification:USN_Stencil;letter-spacing:0px;word-spacing:0px;writing-mode:lr-tb;stroke-width:0.264583"
       x="76.912354"
       y="-1.7749003"
       id="text5568"><tspan
         sodipodi:role="line"
         id="tspan5566"
         style="stroke-width:0.264583"
         x="76.912354"
         y="-1.7749003" /></text>
    <path
       style="fill:none;stroke:#000000;stroke-width:0.644128;stroke-linecap:square;stroke-miterlimit:500"
       d="m -39.591829,35.923735 c -2.791914,-0.188951 -6.63606,-0.88136 -7.558485,-1.361397 -1.097518,-0.571163 -1.615408,-1.350305 -1.551508,-2.334174 0.03127,-0.48153 2.129703,-2.710683 3.495556,-3.713316 4.914404,-3.607499 16.607333,-6.746379 29.165686,-7.829307 4.204576,-0.362544 22.5616876,-0.504191 28.019554,-0.216169 15.183467,0.801249 30.271195,2.724283 48.846346,6.225788 10.521419,1.98335 26.31165,5.457483 25.228339,5.550683 -0.354268,0.03029 -21.803724,0.828255 -47.665453,1.77282 -25.861729,0.944582 -49.436796,1.812077 -52.38905,1.927777 -6.284662,0.24629 -21.820186,0.23251 -25.590985,-0.02261 z"
       id="path1725" />
    <path
       style="fill:#000000;stroke:#000000;stroke-width:0.631012;stroke-linecap:square;stroke-miterlimit:500"
       d="m -38.722245,35.518444 c -4.639438,-0.270726 -7.75642,-0.909421 -8.824595,-1.808231 -0.889977,-0.748866 -0.837391,-1.425685 0.20528,-2.642106 2.016489,-2.352515 5.28464,-4.1901 10.574748,-5.945871 5.16724,-1.714991 10.819185,-2.883329 18.447266,-3.813318 3.763638,-0.458849 26.2445146,-0.682238 32.017338,-0.318151 18.642408,1.17576 37.299727,3.897956 60.044517,8.760795 6.945097,1.484862 9.811505,2.155531 9.320635,2.180797 -0.173526,0.0089 -21.990748,0.827147 -48.482707,1.818255 -39.1214817,1.463601 -50.240998,1.815518 -59.209897,1.873908 -6.073483,0.03954 -12.415147,-0.0082 -14.092585,-0.106082 z"
       id="path2135" />
    <path
       style="fill:#000000;stroke:#000000;stroke-width:0.0394382;stroke-linecap:square;stroke-miterlimit:500"
       d="m 83.395086,32.009018 c 0.0045,-0.01117 0.01196,-0.06225 0.01693,-0.113509 0.009,-0.09017 0.01016,-0.09294 0.04086,-0.08526 0.01738,0.0044 0.192636,0.04753 0.389415,0.09594 l 0.357788,0.08799 -0.269484,0.0093 c -0.14823,0.0051 -0.331103,0.013 -0.406392,0.01758 -0.120203,0.0073 -0.13595,0.0059 -0.129109,-0.012 z"
       id="path2174" />
    <path
       style="fill:#000000;stroke:#000000;stroke-width:0.0394382;stroke-linecap:square;stroke-miterlimit:500"
       d="m 69.667097,30.658263 c 0,-2.05595 0.0034,-2.524045 0.01704,-2.524045 0.04064,0 3.093822,0.640207 4.958771,1.03978 5.582587,1.196089 9.745155,2.15915 11.101862,2.568547 0.524315,0.158217 0.613511,0.216825 0.652217,0.428562 l 0.02021,0.110699 -0.05565,0.09598 c -0.04041,0.06968 -0.07055,0.10466 -0.109717,0.127672 -0.09911,0.0581 -0.0526,0.05466 -1.506123,0.111546 -0.996978,0.03902 -2.978179,0.114616 -3.772926,0.14396 -0.386819,0.01428 -0.777262,0.02935 -0.867643,0.03349 -0.09041,0.0042 -0.477855,0.0191 -0.861062,0.03325 -0.383208,0.01415 -1.169997,0.04348 -1.748426,0.06518 -0.578429,0.0217 -1.533823,0.05729 -2.123088,0.07908 -0.589276,0.02181 -1.302119,0.04847 -1.58411,0.05927 -0.883039,0.03382 -4.058009,0.151085 -4.090405,0.151085 h -0.03093 z m 13.757359,1.143708 c 0.0045,-0.0072 -0.0011,-0.01315 -0.01309,-0.01315 -0.01174,0 -0.01761,0.0059 -0.01321,0.01315 0.0045,0.0072 0.01016,0.01315 0.01321,0.01315 0.0023,0 0.009,-0.0059 0.01309,-0.01315 z"
       id="path2213" />
  </g>
</svg>
