<?xml version="1.0" encoding="UTF-8" standalone="no"?>
<!-- Created with Inkscape (http://www.inkscape.org/) -->

<svg
   width="128"
   height="64"
   viewBox="0 0 33.866666 16.933333"
   version="1.1"
   id="svg5"
   inkscape:export-filename="C:\Users\khowl\Downloads\boot2.png"
   inkscape:export-xdpi="96"
   inkscape:export-ydpi="96"
   inkscape:version="1.1.2 (b8e25be833, 2022-02-05)"
   sodipodi:docname="boot.svg"
   xmlns:inkscape="http://www.inkscape.org/namespaces/inkscape"
   xmlns:sodipodi="http://sodipodi.sourceforge.net/DTD/sodipodi-0.dtd"
   xmlns="http://www.w3.org/2000/svg"
   xmlns:svg="http://www.w3.org/2000/svg">
  <sodipodi:namedview
     id="namedview7"
     pagecolor="#ffffff"
     bordercolor="#666666"
     borderopacity="1.0"
     inkscape:pageshadow="2"
     inkscape:pageopacity="0.0"
     inkscape:pagecheckerboard="0"
     inkscape:document-units="mm"
     showgrid="false"
     units="px"
     inkscape:zoom="4"
     inkscape:cx="60.375"
     inkscape:cy="73.375"
     inkscape:window-width="1920"
     inkscape:window-height="1001"
     inkscape:window-x="-9"
     inkscape:window-y="-9"
     inkscape:window-maximized="1"
     inkscape:current-layer="layer1"
     fit-margin-top="0"
     fit-margin-left="0"
     fit-margin-right="0"
     fit-margin-bottom="0" />
  <defs
     id="defs2" />
  <g
     inkscape:label="Layer 1"
     inkscape:groupmode="layer"
     id="layer1"
     transform="translate(-1.5460764,-2.7735385)">
    <text
       xml:space="preserve"
       style="font-style:normal;font-variant:normal;font-weight:normal;font-stretch:normal;font-size:8px;line-height:1.25;font-family:'Grand National';-inkscape-font-specification:'Grand National, Normal';font-variant-ligatures:normal;font-variant-caps:normal;font-variant-numeric:normal;font-variant-east-asian:normal;letter-spacing:0px;word-spacing:0px;writing-mode:lr-tb;stroke-width:0.264583"
       x="4.8725166"
       y="9.8786774"
       id="text5336"><tspan
         sodipodi:role="line"
         id="tspan5334"
         style="font-style:normal;font-variant:normal;font-weight:normal;font-stretch:normal;font-size:8px;font-family:'Grand National';-inkscape-font-specification:'Grand National, Normal';font-variant-ligatures:normal;font-variant-caps:normal;font-variant-numeric:normal;font-variant-east-asian:normal;stroke-width:0.264583"
         x="4.8725166"
         y="9.8786774">XYUV</tspan></text>
    <text
       xml:space="preserve"
       style="font-size:36px;line-height:1.25;font-family:USN_Stencil;-inkscape-font-specification:USN_Stencil;letter-spacing:0px;word-spacing:0px;writing-mode:lr-tb;stroke-width:0.264583"
       x="76.912354"
       y="-1.7749003"
       id="text5568"><tspan
         sodipodi:role="line"
         id="tspan5566"
         style="stroke-width:0.264583"
         x="76.912354"
         y="-1.7749003" /></text>
    <path
       style="fill:none;stroke:#000000;stroke-width:0.150983;stroke-linecap:square;stroke-miterlimit:500"
       d="M 5.0399561,16.96823 C 4.3855344,16.92394 3.4844709,16.76164 3.2682555,16.64912 c -0.257257,-0.13388 -0.37865,-0.31651 -0.3636719,-0.547128 0.00733,-0.11287 0.4992002,-0.635381 0.8193545,-0.870397 1.151931,-0.845594 3.8927408,-1.581344 6.8364049,-1.835181 0.985548,-0.08498 5.288435,-0.118182 6.567753,-0.05067 3.558988,0.187812 7.095535,0.638569 11.44953,1.459318 2.466209,0.464895 6.167422,1.279228 5.913495,1.301074 -0.08304,0.0071 -5.110769,0.194142 -11.17273,0.415547 -6.061961,0.221409 -11.587931,0.424749 -12.279936,0.451869 -1.473118,0.05773 -5.1146278,0.0545 -5.9984989,-0.0053 z"
       id="path1725" />
    <path
       style="fill:#000000;stroke:#000000;stroke-width:0.559024;stroke-linecap:square;stroke-miterlimit:500"
       d="M 13.975594,53.290174 C 9.8654368,53.050333 7.1040483,52.484502 6.157734,51.688231 5.3692885,51.024798 5.4158754,50.425192 6.3395955,49.347544 c 1.7864419,-2.084133 4.6817525,-3.712081 9.3683505,-5.267549 4.577746,-1.51934 9.584901,-2.554391 16.342749,-3.378284 3.334271,-0.406502 23.250465,-0.604406 28.364708,-0.281855 16.515629,1.041626 33.044468,3.453266 53.194467,7.761338 6.15278,1.315465 8.69218,1.909622 8.25731,1.932006 -0.15373,0.0079 -19.48198,0.732783 -42.951661,1.610823 -34.658391,1.296629 -44.509361,1.608398 -52.455062,1.660127 -5.380603,0.03503 -10.998792,-0.0073 -12.484863,-0.09398 z"
       id="path2135"
       transform="matrix(0.26458333,0,0,0.26458333,1.5460764,2.7735385)" />
    <path
       style="fill:#000000;stroke:#000000;stroke-width:0.034939;stroke-linecap:square;stroke-miterlimit:500"
       d="m 122.16143,50.181113 c 0.004,-0.0099 0.0106,-0.05515 0.015,-0.100559 0.008,-0.07988 0.009,-0.08234 0.0362,-0.07553 0.0154,0.0039 0.17066,0.04211 0.34499,0.08499 l 0.31697,0.07795 -0.23874,0.0082 c -0.13132,0.0045 -0.29333,0.01152 -0.36003,0.01557 -0.10649,0.0065 -0.12044,0.0052 -0.11438,-0.01063 z"
       id="path2174"
       transform="matrix(0.26458333,0,0,0.26458333,1.5460764,2.7735385)" />
    <path
       style="fill:#000000;stroke:#000000;stroke-width:0.034939;stroke-linecap:square;stroke-miterlimit:500"
       d="m 109.99957,48.984456 c 0,-1.821401 0.003,-2.236095 0.0151,-2.236095 0.036,0 2.74087,0.567171 4.39306,0.921159 4.94571,1.059636 8.6334,1.912828 9.83533,2.27552 0.4645,0.140167 0.54352,0.192089 0.57781,0.379671 l 0.0179,0.09807 -0.0493,0.08503 c -0.0358,0.06173 -0.0625,0.09272 -0.0972,0.113107 -0.0878,0.05147 -0.0466,0.04842 -1.3343,0.09882 -0.88324,0.03457 -2.63842,0.101541 -3.3425,0.127537 -0.34269,0.01265 -0.68859,0.026 -0.76866,0.02967 -0.0801,0.0037 -0.42334,0.01692 -0.76283,0.02946 -0.33949,0.01254 -1.03652,0.03852 -1.54896,0.05774 -0.51244,0.01922 -1.35884,0.05075 -1.88088,0.07006 -0.52205,0.01932 -1.15357,0.04294 -1.40339,0.05251 -0.7823,0.02996 -3.59506,0.133849 -3.62376,0.133849 h -0.0274 z m 12.18788,1.013231 c 0.004,-0.0064 -0.001,-0.01165 -0.0116,-0.01165 -0.0104,0 -0.0156,0.0052 -0.0117,0.01165 0.004,0.0064 0.009,0.01165 0.0117,0.01165 0.002,0 0.008,-0.0052 0.0116,-0.01165 z"
       id="path2213"
       transform="matrix(0.26458333,0,0,0.26458333,1.5460764,2.7735385)" />
  </g>
</svg>
